<svg width="311" height="55" viewBox="0 0 311 55" fill="none" xmlns="http://www.w3.org/2000/svg">
<rect width="311" height="55" rx="16" fill="url(#paint0_linear_566_2430)"/>
<path d="M26.8856 23.5165H26.8156C26.2557 23.5234 25.7329 23.7979 25.4093 24.2548C25.0856 24.7117 25.0001 25.296 25.1794 25.8265C25.4358 26.5639 26.1498 27.0423 26.9294 26.999C27.485 26.9725 27.995 26.6834 28.3031 26.2202C28.5027 25.9357 28.6097 25.5965 28.6094 25.249C28.6058 24.902 28.4992 24.5639 28.3031 24.2777C27.9822 23.8089 27.4537 23.5251 26.8856 23.5165Z" fill="white"/>
<path d="M24.2606 22.7027C24.075 22.5635 23.8416 22.5037 23.6119 22.5365C23.3821 22.5693 23.1749 22.6921 23.0356 22.8777C22.4676 23.635 22.1606 24.5561 22.1606 25.5027C22.1606 26.4493 22.4676 27.3704 23.0356 28.1277C23.1735 28.3147 23.3802 28.4392 23.61 28.4737C23.8398 28.5081 24.0739 28.4498 24.2606 28.3115C24.4476 28.1735 24.5721 27.9669 24.6066 27.7371C24.641 27.5073 24.5827 27.2732 24.4444 27.0865C23.7382 26.1682 23.7382 24.8897 24.4444 23.9715C24.597 23.7821 24.6639 23.5377 24.629 23.297C24.5941 23.0563 24.4607 22.841 24.2606 22.7027Z" fill="white"/>
<path d="M19.4919 25.494C19.4967 24.0298 19.9859 22.6085 20.8831 21.4515C21.0976 21.2066 21.1583 20.8629 21.0409 20.5593C20.9235 20.2558 20.6472 20.0425 20.3238 20.0056C20.0004 19.9688 19.6833 20.1146 19.5006 20.384C17.1665 23.381 17.1665 27.5806 19.5006 30.5777C19.7954 30.9619 20.3458 31.0344 20.73 30.7396C21.1142 30.4448 21.1867 29.8944 20.8919 29.5102C19.9952 28.3624 19.503 26.9504 19.4919 25.494Z" fill="white"/>
<path d="M21.6794 25.4765C21.6824 24.4693 22.0177 23.4912 22.6331 22.694C22.8999 22.3092 22.8166 21.7826 22.444 21.499C22.0714 21.2155 21.5416 21.2755 21.2419 21.6352C20.3925 22.7357 19.9311 24.0863 19.9294 25.4765C19.9401 26.8692 20.4039 28.2206 21.2506 29.3265C21.4177 29.5435 21.6767 29.6698 21.9506 29.6677C22.1399 29.6677 22.3242 29.6063 22.4756 29.4927C22.8594 29.2001 22.9337 28.652 22.6419 28.2677C22.0215 27.4692 21.683 26.4877 21.6794 25.4765Z" fill="white"/>
<path d="M30.7006 22.8777C30.5131 22.6276 30.2063 22.4966 29.896 22.534C29.5856 22.5714 29.3188 22.7715 29.196 23.059C29.0732 23.3465 29.1131 23.6776 29.3006 23.9277C29.6427 24.3786 29.83 24.928 29.8344 25.494C29.8313 26.052 29.6504 26.5945 29.3181 27.0427C29.1798 27.2294 29.1215 27.4635 29.1559 27.6933C29.1904 27.9231 29.3149 28.1298 29.5019 28.2677C29.652 28.3764 29.8328 28.4346 30.0181 28.434C30.2935 28.434 30.5529 28.3043 30.7181 28.084C31.8834 26.5442 31.8834 24.4175 30.7181 22.8777H30.7006Z" fill="white"/>
<path d="M34.2094 20.384C33.9146 19.9998 33.3642 19.9273 32.98 20.2221C32.5958 20.5169 32.5233 21.0673 32.8181 21.4515C34.6742 23.8171 34.6742 27.1446 32.8181 29.5102C32.6779 29.6986 32.6193 29.9354 32.6556 30.1675C32.6918 30.3995 32.8197 30.6072 33.0106 30.744C33.1645 30.8594 33.3521 30.9209 33.5444 30.919C33.8152 30.9183 34.0704 30.7923 34.2356 30.5777C36.576 27.5828 36.576 23.3789 34.2356 20.384H34.2094Z" fill="white"/>
<path d="M32.4594 21.6352C32.276 21.3707 31.9622 21.2283 31.6424 21.2643C31.3226 21.3004 31.0484 21.509 30.9284 21.8077C30.8084 22.1063 30.8621 22.4467 31.0681 22.694C31.6836 23.4912 32.0188 24.4693 32.0219 25.4765C32.0188 26.489 31.6837 27.4726 31.0681 28.2765C30.8702 28.5403 30.8375 28.8931 30.9835 29.1889C31.1296 29.4847 31.4295 29.6732 31.7594 29.6765C32.0302 29.6758 32.2854 29.5498 32.4506 29.3352C33.3032 28.2292 33.7676 26.873 33.7719 25.4765C33.7721 24.086 33.3105 22.7348 32.4594 21.6352Z" fill="white"/>
<path d="M26.8856 27.8915C26.4024 27.8915 26.0106 28.2832 26.0106 28.7665V32.2665C26.0106 32.7497 26.4024 33.1415 26.8856 33.1415C27.3689 33.1415 27.7606 32.7497 27.7606 32.2665V28.7665C27.7606 28.2832 27.3689 27.8915 26.8856 27.8915Z" fill="white"/>
<path d="M52.402 31.344H56.632V33H50.35V20.49H52.402V31.344ZM59.392 21.768C59.02 21.768 58.708 21.642 58.456 21.39C58.204 21.138 58.078 20.826 58.078 20.454C58.078 20.082 58.204 19.77 58.456 19.518C58.708 19.266 59.02 19.14 59.392 19.14C59.752 19.14 60.058 19.266 60.31 19.518C60.562 19.77 60.688 20.082 60.688 20.454C60.688 20.826 60.562 21.138 60.31 21.39C60.058 21.642 59.752 21.768 59.392 21.768ZM60.4 23.082V33H58.348V23.082H60.4ZM66.9281 31.164L69.7361 23.082H71.9141L68.1341 33H65.6861L61.9241 23.082H64.1201L66.9281 31.164ZM82.5552 27.798C82.5552 28.17 82.5312 28.506 82.4832 28.806H74.9052C74.9652 29.598 75.2592 30.234 75.7872 30.714C76.3152 31.194 76.9632 31.434 77.7312 31.434C78.8352 31.434 79.6152 30.972 80.0712 30.048H82.2852C81.9852 30.96 81.4392 31.71 80.6472 32.298C79.8672 32.874 78.8952 33.162 77.7312 33.162C76.7832 33.162 75.9312 32.952 75.1752 32.532C74.4312 32.1 73.8432 31.5 73.4112 30.732C72.9912 29.952 72.7812 29.052 72.7812 28.032C72.7812 27.012 72.9852 26.118 73.3932 25.35C73.8132 24.57 74.3952 23.97 75.1392 23.55C75.8952 23.13 76.7592 22.92 77.7312 22.92C78.6672 22.92 79.5012 23.124 80.2332 23.532C80.9652 23.94 81.5352 24.516 81.9432 25.26C82.3512 25.992 82.5552 26.838 82.5552 27.798ZM80.4132 27.15C80.4012 26.394 80.1312 25.788 79.6032 25.332C79.0752 24.876 78.4212 24.648 77.6412 24.648C76.9332 24.648 76.3272 24.876 75.8232 25.332C75.3192 25.776 75.0192 26.382 74.9232 27.15H80.4132ZM92.8504 33.162C92.0704 33.162 91.3684 33.024 90.7444 32.748C90.1324 32.46 89.6464 32.076 89.2864 31.596C88.9264 31.104 88.7344 30.558 88.7104 29.958H90.8344C90.8704 30.378 91.0684 30.732 91.4284 31.02C91.8004 31.296 92.2624 31.434 92.8144 31.434C93.3904 31.434 93.8344 31.326 94.1464 31.11C94.4704 30.882 94.6324 30.594 94.6324 30.246C94.6324 29.874 94.4524 29.598 94.0924 29.418C93.7444 29.238 93.1864 29.04 92.4184 28.824C91.6744 28.62 91.0684 28.422 90.6004 28.23C90.1324 28.038 89.7244 27.744 89.3764 27.348C89.0404 26.952 88.8724 26.43 88.8724 25.782C88.8724 25.254 89.0284 24.774 89.3404 24.342C89.6524 23.898 90.0964 23.55 90.6724 23.298C91.2604 23.046 91.9324 22.92 92.6884 22.92C93.8164 22.92 94.7224 23.208 95.4064 23.784C96.1024 24.348 96.4744 25.122 96.5224 26.106H94.4704C94.4344 25.662 94.2544 25.308 93.9304 25.044C93.6064 24.78 93.1684 24.648 92.6164 24.648C92.0764 24.648 91.6624 24.75 91.3744 24.954C91.0864 25.158 90.9424 25.428 90.9424 25.764C90.9424 26.028 91.0384 26.25 91.2304 26.43C91.4224 26.61 91.6564 26.754 91.9324 26.862C92.2084 26.958 92.6164 27.084 93.1564 27.24C93.8764 27.432 94.4644 27.63 94.9204 27.834C95.3884 28.026 95.7904 28.314 96.1264 28.698C96.4624 29.082 96.6364 29.592 96.6484 30.228C96.6484 30.792 96.4924 31.296 96.1804 31.74C95.8684 32.184 95.4244 32.532 94.8484 32.784C94.2844 33.036 93.6184 33.162 92.8504 33.162ZM101.26 24.756V30.246C101.26 30.618 101.344 30.888 101.512 31.056C101.692 31.212 101.992 31.29 102.412 31.29H103.672V33H102.052C101.128 33 100.42 32.784 99.9276 32.352C99.4356 31.92 99.1896 31.218 99.1896 30.246V24.756H98.0196V23.082H99.1896V20.616H101.26V23.082H103.672V24.756H101.26ZM107.615 24.522C107.915 24.018 108.311 23.628 108.803 23.352C109.307 23.064 109.901 22.92 110.585 22.92V25.044H110.063C109.259 25.044 108.647 25.248 108.227 25.656C107.819 26.064 107.615 26.772 107.615 27.78V33H105.563V23.082H107.615V24.522ZM121.561 27.798C121.561 28.17 121.537 28.506 121.489 28.806H113.911C113.971 29.598 114.265 30.234 114.793 30.714C115.321 31.194 115.969 31.434 116.737 31.434C117.841 31.434 118.621 30.972 119.077 30.048H121.291C120.991 30.96 120.445 31.71 119.653 32.298C118.873 32.874 117.901 33.162 116.737 33.162C115.789 33.162 114.937 32.952 114.181 32.532C113.437 32.1 112.849 31.5 112.417 30.732C111.997 29.952 111.787 29.052 111.787 28.032C111.787 27.012 111.991 26.118 112.399 25.35C112.819 24.57 113.401 23.97 114.145 23.55C114.901 23.13 115.765 22.92 116.737 22.92C117.673 22.92 118.507 23.124 119.239 23.532C119.971 23.94 120.541 24.516 120.949 25.26C121.357 25.992 121.561 26.838 121.561 27.798ZM119.419 27.15C119.407 26.394 119.137 25.788 118.609 25.332C118.081 24.876 117.427 24.648 116.647 24.648C115.939 24.648 115.333 24.876 114.829 25.332C114.325 25.776 114.025 26.382 113.929 27.15H119.419ZM122.896 27.996C122.896 27 123.1 26.118 123.508 25.35C123.928 24.582 124.492 23.988 125.2 23.568C125.92 23.136 126.712 22.92 127.576 22.92C128.356 22.92 129.034 23.076 129.61 23.388C130.198 23.688 130.666 24.066 131.014 24.522V23.082H133.084V33H131.014V31.524C130.666 31.992 130.192 32.382 129.592 32.694C128.992 33.006 128.308 33.162 127.54 33.162C126.688 33.162 125.908 32.946 125.2 32.514C124.492 32.07 123.928 31.458 123.508 30.678C123.1 29.886 122.896 28.992 122.896 27.996ZM131.014 28.032C131.014 27.348 130.87 26.754 130.582 26.25C130.306 25.746 129.94 25.362 129.484 25.098C129.028 24.834 128.536 24.702 128.008 24.702C127.48 24.702 126.988 24.834 126.532 25.098C126.076 25.35 125.704 25.728 125.416 26.232C125.14 26.724 125.002 27.312 125.002 27.996C125.002 28.68 125.14 29.28 125.416 29.796C125.704 30.312 126.076 30.708 126.532 30.984C127 31.248 127.492 31.38 128.008 31.38C128.536 31.38 129.028 31.248 129.484 30.984C129.94 30.72 130.306 30.336 130.582 29.832C130.87 29.316 131.014 28.716 131.014 28.032ZM147.786 22.92C148.566 22.92 149.262 23.082 149.874 23.406C150.498 23.73 150.984 24.21 151.332 24.846C151.692 25.482 151.872 26.25 151.872 27.15V33H149.838V27.456C149.838 26.568 149.616 25.89 149.172 25.422C148.728 24.942 148.122 24.702 147.354 24.702C146.586 24.702 145.974 24.942 145.518 25.422C145.074 25.89 144.852 26.568 144.852 27.456V33H142.818V27.456C142.818 26.568 142.596 25.89 142.152 25.422C141.708 24.942 141.102 24.702 140.334 24.702C139.566 24.702 138.954 24.942 138.498 25.422C138.054 25.89 137.832 26.568 137.832 27.456V33H135.78V23.082H137.832V24.216C138.168 23.808 138.594 23.49 139.11 23.262C139.626 23.034 140.178 22.92 140.766 22.92C141.558 22.92 142.266 23.088 142.89 23.424C143.514 23.76 143.994 24.246 144.33 24.882C144.63 24.282 145.098 23.808 145.734 23.46C146.37 23.1 147.054 22.92 147.786 22.92ZM158.083 33.162C157.303 33.162 156.601 33.024 155.977 32.748C155.365 32.46 154.879 32.076 154.519 31.596C154.159 31.104 153.967 30.558 153.943 29.958H156.067C156.103 30.378 156.301 30.732 156.661 31.02C157.033 31.296 157.495 31.434 158.047 31.434C158.623 31.434 159.067 31.326 159.379 31.11C159.703 30.882 159.865 30.594 159.865 30.246C159.865 29.874 159.685 29.598 159.325 29.418C158.977 29.238 158.419 29.04 157.651 28.824C156.907 28.62 156.301 28.422 155.833 28.23C155.365 28.038 154.957 27.744 154.609 27.348C154.273 26.952 154.105 26.43 154.105 25.782C154.105 25.254 154.261 24.774 154.573 24.342C154.885 23.898 155.329 23.55 155.905 23.298C156.493 23.046 157.165 22.92 157.921 22.92C159.049 22.92 159.955 23.208 160.639 23.784C161.335 24.348 161.707 25.122 161.755 26.106H159.703C159.667 25.662 159.487 25.308 159.163 25.044C158.839 24.78 158.401 24.648 157.849 24.648C157.309 24.648 156.895 24.75 156.607 24.954C156.319 25.158 156.175 25.428 156.175 25.764C156.175 26.028 156.271 26.25 156.463 26.43C156.655 26.61 156.889 26.754 157.165 26.862C157.441 26.958 157.849 27.084 158.389 27.24C159.109 27.432 159.697 27.63 160.153 27.834C160.621 28.026 161.023 28.314 161.359 28.698C161.695 29.082 161.869 29.592 161.881 30.228C161.881 30.792 161.725 31.296 161.413 31.74C161.101 32.184 160.657 32.532 160.081 32.784C159.517 33.036 158.851 33.162 158.083 33.162Z" fill="white"/>
<defs>
<linearGradient id="paint0_linear_566_2430" x1="155.5" y1="84" x2="155.5" y2="-50.5" gradientUnits="userSpaceOnUse">
<stop offset="0.0001" stop-color="#FF0000"/>
<stop offset="1" stop-color="#F5AF19"/>
</linearGradient>
</defs>
</svg>
