<svg width="8" height="8" viewBox="0 0 8 8" fill="none" xmlns="http://www.w3.org/2000/svg">
<g id="Interface essential/Pluse ellipse">
<g id="Icon">
<path fill-rule="evenodd" clip-rule="evenodd" d="M3.81335 0.666626H4.18669C5.92454 0.666626 7.33335 2.07544 7.33335 3.81329V4.18663C7.33335 5.92448 5.92454 7.33329 4.18669 7.33329H3.81335C2.0755 7.33329 0.666687 5.92448 0.666687 4.18663V3.81329C0.666687 2.07544 2.0755 0.666626 3.81335 0.666626ZM4.18669 6.83329C5.64387 6.8224 6.82247 5.64381 6.83335 4.18663V3.81329C6.82247 2.35611 5.64387 1.17751 4.18669 1.16663H3.81335C2.35617 1.17751 1.17758 2.35611 1.16669 3.81329V4.18663C1.17758 5.64381 2.35617 6.8224 3.81335 6.83329H4.18669Z" fill="#AE1FCE"/>
<path d="M5.33335 3.74996H4.25002V2.66663C4.25002 2.52855 4.13809 2.41663 4.00002 2.41663C3.86195 2.41663 3.75002 2.52855 3.75002 2.66663V3.74996H2.66669C2.52862 3.74996 2.41669 3.86189 2.41669 3.99996C2.41669 4.13803 2.52862 4.24996 2.66669 4.24996H3.75002V5.33329C3.75002 5.47136 3.86195 5.58329 4.00002 5.58329C4.13809 5.58329 4.25002 5.47136 4.25002 5.33329V4.24996H5.33335C5.47143 4.24996 5.58335 4.13803 5.58335 3.99996C5.58335 3.86189 5.47143 3.74996 5.33335 3.74996Z" fill="#AE1FCE"/>
</g>
</g>
</svg>
