<svg width="24" height="24" viewBox="0 0 24 24" fill="none" xmlns="http://www.w3.org/2000/svg">
<path d="M12.4407 8.01881H12.3607C11.7208 8.02674 11.1233 8.34041 10.7534 8.86262C10.3835 9.38483 10.2859 10.0525 10.4907 10.6588C10.7838 11.5016 11.5998 12.0483 12.4907 11.9988C13.1258 11.9685 13.7086 11.6382 14.0607 11.1088C14.2888 10.7836 14.411 10.396 14.4107 9.99881C14.4067 9.60229 14.2848 9.21593 14.0607 8.88881C13.6939 8.35304 13.0899 8.02866 12.4407 8.01881Z" fill="white"/>
<path d="M9.44071 7.08881C9.22853 6.92968 8.96184 6.86135 8.69929 6.89886C8.43674 6.93637 8.19984 7.07664 8.04071 7.28881C7.3916 8.15429 7.04071 9.20696 7.04071 10.2888C7.04071 11.3707 7.3916 12.4233 8.04071 13.2888C8.19834 13.5025 8.43452 13.6448 8.69715 13.6842C8.95979 13.7236 9.2273 13.6569 9.44071 13.4988C9.65444 13.3412 9.79668 13.105 9.83608 12.8424C9.87547 12.5797 9.80878 12.3122 9.65071 12.0988C8.84369 11.0494 8.84369 9.58827 9.65071 8.53881C9.8251 8.32238 9.90155 8.04312 9.86171 7.76804C9.82187 7.49296 9.66934 7.24687 9.44071 7.08881Z" fill="white"/>
<path d="M3.99071 10.2788C3.99625 8.60553 4.5553 6.9811 5.58071 5.65881C5.82578 5.37895 5.89525 4.98618 5.76103 4.63923C5.62682 4.29229 5.31112 4.04852 4.94151 4.00644C4.5719 3.96435 4.20948 4.13092 4.00071 4.43881C1.3331 7.86402 1.3331 12.6636 4.00071 16.0888C4.3376 16.5279 4.96664 16.6107 5.40571 16.2738C5.84478 15.9369 5.9276 15.3079 5.59071 14.8688C4.56597 13.557 4.00347 11.9434 3.99071 10.2788Z" fill="white"/>
<path d="M6.49071 10.2588C6.4942 9.10774 6.87733 7.98998 7.58071 7.07881C7.88565 6.63909 7.79039 6.03723 7.36456 5.71317C6.93873 5.38911 6.33326 5.45771 5.99071 5.86881C5.02005 7.12657 4.49267 8.67006 4.49071 10.2588C4.50294 11.8505 5.03298 13.395 6.00071 14.6588C6.19164 14.9069 6.4877 15.0512 6.80071 15.0488C7.01708 15.0488 7.22761 14.9786 7.40071 14.8488C7.83927 14.5144 7.92428 13.888 7.59071 13.4488C6.88167 12.5362 6.49486 11.4145 6.49071 10.2588Z" fill="white"/>
<path d="M16.8007 7.28881C16.5864 7.003 16.2358 6.85325 15.8811 6.89599C15.5264 6.93872 15.2214 7.16744 15.0811 7.49599C14.9408 7.82454 14.9864 8.203 15.2007 8.48881C15.5917 9.00411 15.8057 9.63198 15.8107 10.2788C15.8072 10.9165 15.6005 11.5365 15.2207 12.0488C15.0626 12.2622 14.9959 12.5297 15.0353 12.7924C15.0747 13.055 15.217 13.2912 15.4307 13.4488C15.6023 13.573 15.8089 13.6396 16.0207 13.6388C16.3355 13.6388 16.6319 13.4906 16.8207 13.2388C18.1525 11.479 18.1525 9.04859 16.8207 7.28881H16.8007Z" fill="white"/>
<path d="M20.8107 4.43881C20.4738 3.99974 19.8448 3.91692 19.4057 4.25381C18.9666 4.5907 18.8838 5.21974 19.2207 5.65881C21.342 8.36237 21.342 12.1652 19.2207 14.8688C19.0605 15.0841 18.9935 15.3548 19.0349 15.62C19.0763 15.8851 19.2225 16.1225 19.4407 16.2788C19.6165 16.4107 19.8309 16.481 20.0507 16.4788C20.3602 16.4781 20.6519 16.3341 20.8407 16.0888C23.5155 12.6661 23.5155 7.86156 20.8407 4.43881H20.8107Z" fill="white"/>
<path d="M18.8107 5.86881C18.6011 5.56657 18.2425 5.40378 17.877 5.44495C17.5115 5.48613 17.1981 5.72462 17.061 6.06592C16.9239 6.40722 16.9853 6.79624 17.2207 7.07881C17.9241 7.98998 18.3072 9.10774 18.3107 10.2588C18.3072 11.416 17.9243 12.5401 17.2207 13.4588C16.9945 13.7604 16.9571 14.1636 17.124 14.5016C17.2909 14.8396 17.6337 15.0551 18.0107 15.0588C18.3202 15.0581 18.6119 14.9141 18.8007 14.6688C19.7751 13.4047 20.3058 11.8548 20.3107 10.2588C20.311 8.66968 19.7834 7.12548 18.8107 5.86881Z" fill="white"/>
<path d="M12.4407 13.0188C11.8884 13.0188 11.4407 13.4665 11.4407 14.0188V18.0188C11.4407 18.5711 11.8884 19.0188 12.4407 19.0188C12.993 19.0188 13.4407 18.5711 13.4407 18.0188V14.0188C13.4407 13.4665 12.993 13.0188 12.4407 13.0188Z" fill="white"/>
</svg>
