<svg width="28" height="28" viewBox="0 0 28 28" fill="none" xmlns="http://www.w3.org/2000/svg">
<path d="M19.2502 9.51996H8.75016C8.26691 9.51996 7.87516 9.91171 7.87516 10.395C7.87516 10.8782 8.26691 11.27 8.75016 11.27H19.2502C19.7334 11.27 20.1252 10.8782 20.1252 10.395C20.1252 9.91171 19.7334 9.51996 19.2502 9.51996Z" fill="#323232"/>
<path fill-rule="evenodd" clip-rule="evenodd" d="M19.7052 4.16496H19.8335C23.0552 4.16496 25.6668 6.77663 25.6668 9.99829V20.4983C25.6668 23.72 23.0552 26.3316 19.8335 26.3316H8.16683C6.61973 26.3316 5.136 25.717 4.04204 24.6231C2.94808 23.5291 2.3335 22.0454 2.3335 20.4983V9.99829C2.3335 6.77663 4.94517 4.16496 8.16683 4.16496H8.27183V2.04163C8.27183 1.55838 8.66358 1.16663 9.14683 1.16663C9.63008 1.16663 10.0218 1.55838 10.0218 2.04163V4.16496H17.9552V2.04163C17.9552 1.55838 18.3469 1.16663 18.8302 1.16663C19.3134 1.16663 19.7052 1.55838 19.7052 2.04163V4.16496ZM19.8335 24.5816C22.0887 24.5816 23.9168 22.7535 23.9168 20.4983V9.99829C23.9168 7.74313 22.0887 5.91496 19.8335 5.91496H8.16683C5.91167 5.91496 4.0835 7.74313 4.0835 9.99829V20.4983C4.0835 22.7535 5.91167 24.5816 8.16683 24.5816H19.8335Z" fill="#323232"/>
<path d="M19.2502 9.51996H8.75016C8.26691 9.51996 7.87516 9.91171 7.87516 10.395C7.87516 10.8782 8.26691 11.27 8.75016 11.27H19.2502C19.7334 11.27 20.1252 10.8782 20.1252 10.395C20.1252 9.91171 19.7334 9.51996 19.2502 9.51996Z" stroke="#323232" stroke-width="0.5"/>
<path fill-rule="evenodd" clip-rule="evenodd" d="M19.7052 4.16496H19.8335C23.0552 4.16496 25.6668 6.77663 25.6668 9.99829V20.4983C25.6668 23.72 23.0552 26.3316 19.8335 26.3316H8.16683C6.61973 26.3316 5.136 25.717 4.04204 24.6231C2.94808 23.5291 2.3335 22.0454 2.3335 20.4983V9.99829C2.3335 6.77663 4.94517 4.16496 8.16683 4.16496H8.27183V2.04163C8.27183 1.55838 8.66358 1.16663 9.14683 1.16663C9.63008 1.16663 10.0218 1.55838 10.0218 2.04163V4.16496H17.9552V2.04163C17.9552 1.55838 18.3469 1.16663 18.8302 1.16663C19.3134 1.16663 19.7052 1.55838 19.7052 2.04163V4.16496ZM19.8335 24.5816C22.0887 24.5816 23.9168 22.7535 23.9168 20.4983V9.99829C23.9168 7.74313 22.0887 5.91496 19.8335 5.91496H8.16683C5.91167 5.91496 4.0835 7.74313 4.0835 9.99829V20.4983C4.0835 22.7535 5.91167 24.5816 8.16683 24.5816H19.8335Z" stroke="#323232" stroke-width="0.5"/>
</svg>
